<?xml version="1.0" encoding="UTF-8"?>
<svg width="1200pt" height="1200pt" version="1.1" viewBox="0 0 1200 1200" xmlns="http://www.w3.org/2000/svg">
 <g>
  <path d="m1072.5 698.2c-10.066-2.6875-20.207-4.8711-30.191-7.668-9.8984-3.0586-19.98-5.4961-29.676-9.0977l-14.664-4.9805c-4.8594-1.7031-9.6133-3.6836-14.41-5.4961-9.6836-3.5156-18.973-7.9219-28.332-12.059-4.7148-2.0391-9.1797-4.5586-13.754-6.8047-4.5469-2.3398-9.1914-4.4883-13.598-7.0781l-13.344-7.4414-12.926-8.1016c-4.3789-2.5938-8.4492-5.6406-12.637-8.5195-4.1758-2.8672-8.3281-5.7617-12.277-8.9531-8.0898-6.0703-15.758-12.66-23.449-19.176l-11.102-10.273-10.598-10.738c-6.8867-7.332-13.477-14.914-19.715-22.766-3.1211-3.9258-6.0234-8.0039-9.0586-11.988l-8.4492-12.395c-5.4375-8.3867-10.715-16.871-15.301-25.727-4.6328-8.8086-8.9531-17.797-12.59-26.988-1.8242-4.5977-3.5273-9.2148-5.0625-13.848-1.4648-4.4883-2.9531-9.5898-3.7812-13.344l-5.7109-25.934-19.391 18.492c-8.2188 7.8359-16.512 15.613-24.625 23.566-8.2305 7.8242-16.105 16.055-24.613 23.555l-25.691 22.355-12.84 11.195c-4.2734 3.7305-8.8906 7.0312-13.332 10.57l-26.676 21.156c-4.3672 3.6484-9.0117 6.8984-13.645 10.176l-13.871 9.8516c-9.3125 6.4688-18.289 13.477-28.031 19.297-9.625 6.0234-19.094 12.301-28.633 18.457-9.6367 6.0117-19.621 11.438-29.41 17.195-4.957 2.7617-9.7695 5.832-14.844 8.3633l-15.168 7.7773-15.133 7.9219c-5.0391 2.6523-10.273 4.8359-15.422 7.2852-10.332 4.7266-20.578 9.7695-31.223 13.824-10.535 4.3203-21 8.9297-31.801 12.613l-16.082 5.8477-16.332 5.2188c-5.4102 1.8594-10.895 3.457-16.43 4.9453-5.5195 1.5-11.016 3.2148-16.609 4.4297-11.125 2.832-22.32 5.4102-33.742 7.0547 11.531-0.085938 23.09-1.1172 34.598-2.4258 5.7617-0.60156 11.461-1.6797 17.184-2.5664 5.7461-0.86328 11.461-1.8359 17.137-3.0977l17.051-3.5898 16.848-4.3906c11.316-2.7461 22.367-6.3242 33.469-9.8281 11.172-3.3359 21.949-7.7031 32.867-11.746 5.4258-2.1133 10.969-3.9727 16.309-6.2891l16.031-6.9492c10.691-4.6562 21.348-9.3711 31.645-14.844 10.332-5.3633 20.879-10.402 31.105-16.043 10.078-5.832 20.242-11.578 30.254-17.555 10.223-5.6875 19.645-12.562 29.438-18.898l14.578-9.6953c4.8711-3.2148 9.7578-6.4219 14.352-9.9961l28.008-20.977c4.5977-3.5898 9.3828-6.9492 13.824-10.738l13.309-11.328 26.629-22.703c8.8086-7.6211 16.992-15.938 25.512-23.879 2.6172-2.4609 5.1484-4.9922 7.7383-7.4766 1.0195 2.6875 1.957 5.4102 3.0469 8.0625 4.1641 10.211 9.0234 20.039 14.219 29.664 5.1602 9.6602 11.016 18.875 17.051 27.973 3.0469 4.5117 6.3828 8.832 9.5742 13.234 3.4219 4.2461 6.7578 8.5547 10.246 12.719 7.043 8.293 14.426 16.262 22.094 23.93l11.809 11.207 12.254 10.633 12.742 10.043c4.2461 3.3359 8.8203 6.2539 13.211 9.3594 4.3789 3.168 8.9648 6.0117 13.547 8.8203 4.5977 2.8086 9.0703 5.7852 13.824 8.293l14.09 7.7891 14.438 7.0781c4.7656 2.4492 9.7188 4.5117 14.652 6.5508 4.9688 2.0039 9.793 4.2461 14.832 6.0234 10.055 3.5898 20.004 7.4141 30.238 10.297 5.1133 1.5234 10.152 3.2031 15.254 4.5586l15.445 3.8281c10.246 2.7227 20.746 4.2617 31.078 6.3945 10.379 1.9062 20.879 3.1562 31.285 4.6094l31.414 2.8555 31.453 1.1055-30.926-5.375z"/>
  <path d="m287.45 548.29 6.3359-8.0898c1.8945-2.832 3.6719-5.7734 5.5195-8.6758l0.875-1.3906c1.1172 1.6797 2.1836 3.3828 3.3125 5.0391 4.7148 6.8867 9.7578 13.5 14.93 20.004 5.3867 6.3477 10.934 12.539 16.754 18.457 2.7852 3.0586 5.9297 5.7969 8.9023 8.6992 2.9531 2.8906 6 5.7109 9.2773 8.2695 3.2383 2.6055 6.3008 5.375 9.6719 7.8008l10.02 7.3203c3.3359 2.4258 6.9375 4.5234 10.43 6.6953 3.4922 2.207 7.0312 4.3086 10.754 6.1328l10.957 5.6641 11.41 4.6094 5.6992 2.2578 5.8789 1.7539 11.723 3.3242-10.621-5.8906-5.2812-2.8555-5.0742-3.2383-10.055-6.457-9.5898-7.0547c-3.2539-2.2578-6.2773-4.7891-9.2539-7.3906-2.9648-2.6406-6.1211-4.9688-9-7.6562l-8.6055-8.0742c-2.8789-2.6523-5.4609-5.6523-8.1836-8.4492-2.7344-2.8086-5.3984-5.6758-7.9453-8.6641-2.5547-2.9648-5.2578-5.7734-7.6445-8.9023-4.9922-6.0234-9.6367-12.301-14.184-18.648-4.5234-6.3594-8.9023-12.793-12.961-19.441-2.0156-3.3008-3.9961-6.6367-5.8438-10.02-1.8594-3.3008-3.7188-6.8867-5.1719-9.9375l-8.6289-18.168-11.531 17.566-10.355 15.758-5.1836 7.8711-5.9766 7.3086c-4.0312 4.8242-7.8242 9.8516-12.047 14.52l-13.078 13.668c-4.1758 4.7539-9.2148 8.6406-13.922 12.875-4.8008 4.1172-9.3477 8.543-14.605 12.168l-15.098 11.688-15.938 10.633c-5.2188 3.7188-10.945 6.625-16.379 10.055l-8.2578 4.9922-8.5078 4.5469c-5.7109 2.9766-11.34 6.1562-17.207 8.8438-5.832 2.7617-11.566 5.8555-17.531 8.3867-5.9648 2.5312-11.867 5.2695-17.891 7.7383-6.0352 2.4258-12.035 5.0742-18.191 7.2227-6.1094 2.3633-12.254 4.6562-18.457 6.7578-6.2148 2.1484-12.445 4.2227-18.781 6.1445 6.6016-0.3125 13.223-1.0195 19.789-1.9219 6.5625-0.96094 13.129-1.9805 19.645-3.3242 6.5391-1.2227 12.961-2.9297 19.453-4.4141 6.5273-1.4648 12.816-3.6484 19.246-5.4727 6.4336-1.8359 12.66-4.2617 19.008-6.3945 6.3828-2.0625 12.434-4.9688 18.648-7.5l9.2656-3.9492 9.0469-4.4297c6.0234-3 12.168-5.8086 17.879-9.4219l17.438-10.344 16.715-11.594c5.6523-3.7695 10.645-8.4258 15.887-12.758 5.1367-4.4648 10.598-8.5781 15.227-13.621l14.398-14.578c4.5469-5.1602 8.6016-10.703 12.887-16.043z"/>
  <path d="m1147.4 588.14c-3.1562-1.0078-6.3711-1.4883-9.3945-2.8438-3.0703-1.2109-6.1211-2.3047-9.1445-3.3711-3.0703-0.94922-5.9414-2.4844-8.8203-3.8516-2.8438-1.4883-5.8203-2.5312-8.5938-4.0938l-8.1719-4.7383c-2.7734-1.4141-5.1719-3.5508-7.7656-5.2188-2.5781-1.7539-5.1484-3.4453-7.4531-5.543-2.3398-2.0039-4.8359-3.793-7.0781-5.9141l-6.6484-6.3477-6.1797-6.793c-2.0156-2.2812-3.8398-4.7539-5.7734-7.0938-3.6719-4.8594-7.0938-9.8984-10.188-15.109-1.4883-2.6289-2.9531-5.2578-4.2734-7.9219-1.3438-2.543-2.6641-5.5547-3.457-7.6094l-6.6016-16.766-13.176 12.527-7.4531 7.0938c-2.375 2.4609-5.0742 4.6445-7.7148 6.8867-2.6992 2.1836-5.1602 4.5977-7.9688 6.6836l-8.2578 6.4336-8.5078 6.1914c-2.8086 2.1133-5.7227 4.0781-8.6758 6.0234-5.7852 4.0664-11.809 7.7891-17.797 11.652l-9.1328 5.5781c-3.0234 1.9219-6.1445 3.6836-9.2383 5.4844-3.0703 1.8477-6.1445 3.7305-9.2773 5.4609-3.1562 1.7539-6.2539 3.6133-9.4453 5.2695-12.59 7.1758-25.477 13.824-38.484 20.832 7.3555-0.83984 14.617-2.2578 21.816-3.9102 3.6367-0.74219 7.1523-1.8125 10.738-2.7227 3.5898-0.9375 7.1289-2.0039 10.68-3.0469 14.074-4.5117 28.031-9.6836 41.52-16.031 6.7578-3.1797 13.402-6.5508 19.934-10.246 3.3125-1.7539 6.5273-3.707 9.6953-5.7344 3.168-2.0273 6.4453-3.8984 9.5391-6.0703l9.2383-6.6133c3.1562-2.1133 5.9766-4.7031 8.9531-7.0938 1.668-1.3789 3.3242-2.7461 4.9688-4.1758 0.81641 1.3555 1.668 2.7109 2.5078 4.0664 1.9453 2.9883 3.9844 5.9023 6.0859 8.7852 2.2578 2.7617 4.3789 5.6172 6.7695 8.2578 2.4492 2.5781 4.7266 5.3047 7.3203 7.7383l7.8711 7.1523 8.4258 6.457c2.8438 2.0898 5.9414 3.8398 8.9023 5.7461 2.9414 1.9336 6.1328 3.457 9.2891 4.9805 3.1797 1.4883 6.2383 3.2031 9.5898 4.2461l9.8516 3.457c3.2891 1.0664 6.707 1.7539 10.066 2.4961 3.3711 0.70703 6.6836 1.5586 10.129 1.7773 3.3945 0.38281 6.793 0.74219 10.176 0.98438 3.3477 0.42188 6.793 0.046875 10.152 0.035156 3.3711-0.16797 6.7305-0.25391 10.055-0.52734-3.2305-1.0742-6.4336-1.9492-9.6016-2.9102z"/>
  <path d="m425.45 545.69c6.3828-2.1484 12.742-4.4766 18.938-7.2109 3.1445-1.2734 6.2148-2.6875 9.2383-4.2227 3.0234-1.5469 6.1797-2.8672 9.0977-4.6211l8.9297-5.0039 8.6289-5.543c2.9297-1.7891 5.6992-3.8516 8.4375-5.9414 2.7227-2.1133 5.5938-4.0195 8.207-6.3008l7.8242-6.8281c2.6289-2.2578 4.9922-4.8594 7.4297-7.332 0.44531-0.44531 0.88672-0.91016 1.332-1.3672 1.5469 2.9023 3.1914 5.7617 4.9453 8.5195l4.1758 6.1094 4.5703 5.7852c3.1914 3.7422 6.4922 7.3789 10.141 10.656 3.4805 3.4336 7.5 6.3125 11.328 9.2539l6.168 3.8984c2.0273 1.3086 4.2461 2.3281 6.4219 3.3828 2.1836 1.0195 4.2617 2.1719 6.4922 3.0352 2.2578 0.83984 4.5469 1.5586 6.7695 2.3281 2.207 0.81641 4.5234 1.3672 6.8398 1.8008 2.3164 0.45703 4.6094 0.94922 6.8984 1.3086l-5.6992-4.043c-1.8594-1.3438-3.793-2.4727-5.5195-4.0078l-5.2422-4.2227c-1.7539-1.3438-3.3125-2.9766-4.9453-4.4414-3.3125-2.8672-6.1211-6.3008-9.1445-9.3359l-4.1172-4.9922c-1.4297-1.5977-2.5781-3.4219-3.8633-5.125-1.2617-1.7266-2.5547-3.3945-3.6484-5.2422-1.1055-1.8242-2.3516-3.5273-3.4062-5.3633-2.1602-3.6602-4.1289-7.3789-6.0234-11.148-1.7773-3.8164-3.5156-7.6445-5.0156-11.531-0.73047-1.9453-1.4531-3.8867-2.0508-5.832-0.64844-1.8477-1.2852-4.043-1.6328-5.4258l-5.2578-21.266-15.191 17.039-6.1211 6.8633c-1.9219 2.375-4.1289 4.5469-6.3242 6.707-2.2578 2.1367-4.2617 4.4648-6.5898 6.5391l-6.9102 6.2539c-2.2422 2.1719-4.7773 4.043-7.1523 6.0859-2.4102 2.0039-4.7891 4.043-7.3203 5.9297-4.9453 3.9102-10.02 7.7031-15.203 11.398-10.379 7.4023-21.098 14.531-32.09 21.48-5.5312 3.3945-11.004 7.0547-16.691 10.32-5.6055 3.5273-11.316 6.8281-17.09 10.344 6.7422-0.55078 13.367-1.7891 19.945-3.2539 6.5547-1.6094 13.105-3.2891 19.492-5.4375z"/>
  <path d="m1047.5 772.71-21.527-3.9492c-3.5742-0.70703-7.1758-1.1523-10.727-1.8945l-10.598-2.5547c-7.0664-1.668-14.074-3.4453-21.121-5.0156l-20.762-6.1562-10.332-3.0703-10.141-3.7578c-6.7422-2.4727-13.609-4.6094-20.242-7.332l-19.754-8.4609c-6.5391-2.9023-12.887-6.2266-19.355-9.2539-6.5391-2.9414-12.672-6.625-18.91-10.055-3.1094-1.7656-6.2773-3.3945-9.3242-5.2695l-9.0352-5.7227c-6.1328-3.6484-12.047-7.6094-17.891-11.676-5.9766-3.875-11.496-8.3516-17.207-12.602-5.5078-4.4531-11.09-8.8906-16.262-13.656-5.3164-4.5-10.621-9.6133-14.953-14.172l-9.5039-9.9961-7.8008 10.883-6.2031 8.6641c-1.0547 1.4297-2.0156 2.9297-3.1445 4.2969l-3.5508 4.0195c-2.4258 2.6406-4.6328 5.4609-7.1523 8.0273l-7.7539 7.5859c-2.4844 2.6523-5.5078 4.7148-8.2578 7.1172-2.7852 2.3281-5.5664 4.7148-8.6289 6.7578l-8.9531 6.4219-9.3242 5.9883c-3.0859 2.0898-6.4219 3.7188-9.6367 5.6055-3.2148 1.8828-6.5156 3.6133-9.875 5.2422-3.3125 1.7148-6.625 3.5156-10.043 5.0273-3.4219 1.5352-6.7812 3.2539-10.285 4.6445-3.4922 1.4023-6.9375 2.9648-10.453 4.3203-3.5273 1.3672-7.0312 2.8203-10.621 4.043-7.1523 2.5938-14.363 5.0039-21.758 7.1055 7.668-0.35938 15.348-1.1992 22.922-2.543 3.8164-0.57422 7.5977-1.4023 11.387-2.1367 3.8047-0.69531 7.5234-1.7656 11.281-2.6875 3.7812-0.88672 7.4414-2.1367 11.195-3.1914 3.7578-1.0312 7.3906-2.375 11.09-3.6367 3.6953-1.2734 7.332-2.6758 10.906-4.2461 3.5742-1.5859 7.2734-2.9023 10.766-4.7148l10.598-5.1953c3.4805-1.8594 6.8398-3.9492 10.246-5.9648 3.457-1.9219 6.6953-4.2461 9.9492-6.5156 3.2148-2.3633 6.6836-4.3789 9.6836-7.0547l9.2773-7.6797c3.0703-2.5938 5.7461-5.6523 8.6055-8.4961l4.2344-4.3555c1.0664-1.1641 2.0039-2.4102 2.9766-3.6484 2.375 2.4844 4.7891 4.8711 7.2969 7.2617 5.4609 5.3633 11.387 10.117 17.195 15.012 5.9883 4.6328 11.844 9.5039 18.109 13.738 6.168 4.3906 12.324 8.7969 18.84 12.648l9.6836 5.8906c3.2539 1.9336 6.6484 3.6133 9.9492 5.4102 6.6719 3.5273 13.234 7.2852 20.172 10.273 6.8867 3.0703 13.598 6.5625 20.676 9.1797l21.18 7.8242c7.0938 2.4961 14.375 4.3906 21.551 6.625l10.824 3.0586 11.016 2.3047 21.984 4.5469c7.4141 1.0312 14.855 1.8359 22.246 2.7617l11.102 1.3203c3.7188 0.3125 7.4414 0.45703 11.172 0.60156l22.273 0.75781c3.707 0.23828 7.4297 0.097657 11.137-0.16797l11.113-0.60156c7.4023-0.39453 14.773-0.92578 22.129-1.5117-7.3438-1.1172-14.652-2.1719-21.938-3.0703-7.2578-0.99609-14.543-1.5234-21.742-2.9531z"/>
 </g>
</svg>
