<svg xmlns:xlink="http://www.w3.org/1999/xlink" width="62.3" xmlns="http://www.w3.org/2000/svg" height="62.3" id="screenshot-6be82b9e-6dbe-803c-8001-969e04306b12" viewBox="-0.15 -0.15 62.3 62.3" style="-webkit-print-color-adjust: exact;" fill="none" version="1.1"><g id="shape-6be82b9e-6dbe-803c-8001-969e04306b12" rx="0" ry="0"><g id="shape-417b9cae-e0d4-8095-8001-92cd92e066e7"><g id="fills-417b9cae-e0d4-8095-8001-92cd92e066e7"><path rx="0" ry="0" d="M46.45,0C54.977,0,61.9,6.923,61.9,15.45C61.9,23.977,54.977,30.9,46.45,30.9C37.923,30.9,31,23.977,31,15.45C31,6.923,37.923,0,46.45,0Z"/></g><g id="strokes-417b9cae-e0d4-8095-8001-92cd92e066e7"><g class="stroke-shape"><path rx="0" ry="0" d="M46.45,0C54.977,0,61.9,6.923,61.9,15.45C61.9,23.977,54.977,30.9,46.45,30.9C37.923,30.9,31,23.977,31,15.45C31,6.923,37.923,0,46.45,0Z" style="fill: none; stroke-width: 0.3; stroke: rgb(0, 0, 0); stroke-opacity: 1;"/></g></g></g><g id="shape-0e69787b-ff78-8041-8001-969bc74757d7"><g id="fills-0e69787b-ff78-8041-8001-969bc74757d7"><ellipse rx="31" ry="31" cx="31" cy="31" transform="matrix(1,0,0,1,0,0)"/></g><g id="strokes-0e69787b-ff78-8041-8001-969bc74757d7"><g class="stroke-shape"><ellipse rx="31" ry="31" cx="31" cy="31" transform="matrix(1,0,0,1,0,0)" style="fill: none; stroke-width: 0.3; stroke: rgb(0, 0, 0); stroke-opacity: 1;"/></g></g></g></g></svg>