<?xml version="1.0" encoding="UTF-8"?>
<svg width="1200pt" height="1200pt" version="1.1" viewBox="0 0 1200 1200" xmlns="http://www.w3.org/2000/svg">
 <g>
  <path d="m504.84 846.6c-9.8398-8.0391-19.078-15.121-27.961-22.801-14.617-11.578-27.578-25.102-38.52-40.199-3.7188-5.6406-9-10.32-13.199-15.719v-0.003906c-3.8594-4.418-7.1641-9.2969-9.8398-14.52-11.824-25.77-22.004-52.262-30.48-79.32-6.5508-25.582-10.57-51.75-12-78.117-1.3359-20.367-0.36719-40.816 2.8789-60.961 3.2969-22.172 9.4258-43.832 18.242-64.441 16.664-35.535 39.496-67.836 67.438-95.398 7.0898-8.2734 16.18-14.594 26.402-18.359 13.906-4.7461 27.359-10.73 40.199-17.883 24.145-13.695 52.82-16.988 79.441-9.1172 16.012 4.2227 31.602 9.9258 46.559 17.039 14.641 7.8008 29.762 15 45 21.48 28.672 13.051 52.906 34.199 69.719 60.84 22.875 35.359 39.895 74.18 50.402 114.96 0.72266 1.8281 1.2852 3.7148 1.6797 5.6406 3.6211 24.199 5.5859 48.617 5.8789 73.082-0.88281 34.215-4.8984 68.277-12 101.76-8.457 34.484-23.359 67.055-43.918 96-7.3359 9.3477-16.129 17.453-26.043 24-7.6914 4.5898-15.711 8.6016-24 12-44.879 22.922-93.121 20.398-141.12 17.762h0.003906c-10.156-2.1953-19.996-5.6602-29.281-10.32-14.641-5.5195-29.16-11.281-45.48-17.398zm75.121 9.9609h54.359v-0.003906c23.406 0.54688 46.691-3.5312 68.52-12 35.125-13.195 63.426-40.027 78.48-74.398 20.641-42.359 24-88.199 28.441-133.92 1.0469-25.574-0.88672-51.188-5.7617-76.316-6.5586-44.633-23.27-87.16-48.84-124.32-9.9844-15.75-23.398-29.043-39.238-38.883-7.5586-4.5586-15-9.4805-22.801-13.441-19.078-9.8398-38.641-19.078-57.719-28.922-40.078-20.641-79.559-14.641-118.92 2.1602-21 15.719-44.398 27.719-62.16 48v0.003906c-19.852 22.98-36.043 48.887-48 76.801-4.7461 13.82-8.4375 27.98-11.039 42.359-12.242 41.516-12.242 85.684 0 127.2 1.1992 3.7188 1.4414 7.6797 2.3984 12 6.7422 34.461 20.551 67.148 40.559 96 11.09 13.668 22.867 26.766 35.281 39.242 17.754 18.711 39.605 33.047 63.84 41.879 12.84 4.4414 25.441 9.7188 42.602 16.559z"/>
  <path d="m680.64 672c-2.4414 6.3242-6.6211 11.832-12.059 15.887-5.4336 4.0547-11.902 6.4922-18.66 7.0352-9.9609-5.7305-18.559-13.551-25.203-22.922l12-34.68 20.641-12c6.1758 0.27734 12.008 2.9297 16.277 7.3984 4.2695 4.4727 6.6484 10.418 6.6445 16.602 0.83984 8.0391 0.35938 15.961 0.35938 22.68z"/>
  <path d="m500.28 627.36c4.4414-1.5859 9.2422-1.8867 13.848-0.86719 4.6055 1.0195 8.832 3.3164 12.191 6.6289 5.3398 5.7734 8.2578 13.375 8.1602 21.238 0.73438 10.152-1.0391 20.332-5.1602 29.641-4.6797 1.4414-10.559 5.2812-15.359 4.0781-7.3594-2.1289-14.219-5.7227-20.16-10.559-4.9648-4.7852-7.6328-11.473-7.3203-18.359-0.64062-12.18 4.4688-23.949 13.801-31.801z"/>
  <path d="m533.88 799.56c4.4414-3.2383 7.3203-7.0781 10.559-7.4414l0.003906 0.003906c32-5.1836 64.738-3.4219 96 5.1602 3.3086 1.5898 6.4453 3.5195 9.3594 5.7578-0.13281 3.6914-2.0781 7.0742-5.1992 9.043-3.1211 1.9688-7.0156 2.2695-10.402 0.79688-23.008-5.2383-46.707-6.7773-70.199-4.5586-6.8242 0.37891-13.668-0.023437-20.398-1.1992-3-0.60156-5.5234-4.3203-9.7227-7.5625z"/>
  <path d="m464.76 583.08-5.5195-8.0391 5.8789-7.5586 39.719-2.2812c23.16-9.7188 23.16-9.7188 33.602-7.0781-19.68 25.199-46.441 25.32-73.68 24.957z"/>
  <path d="m687.24 565.32c8.7617-3.8398 16.078-6.7188 20.879 3.2383-2.1602 8.2812-8.8789 9.3594-15.602 10.078l0.003906 0.003906c-20.141 2.6953-40.516-2.8398-56.52-15.359 0.78906-1.7344 1.7539-3.3828 2.8789-4.9219 1.9414-1.4648 3.9883-2.7891 6.1211-3.9609z"/>
  <path d="m627.36 734.16 5.1602 7.4414c-6.5 6.7266-14.883 11.336-24.047 13.219-9.1641 1.8867-18.684 0.95703-27.312-2.6602-7.1992-2.3984-17.52-4.3203-16.68-15.719 8.2812-7.0781 13.199 2.2812 19.559 2.0391 6.3594-0.23828 15.602 0 23.398 0h0.003906c6.7109-1.082 13.359-2.5234 19.918-4.3203z"/>
 </g>
</svg>
